<svg width="128" height="128" viewBox="0 0 128 128" xmlns="http://www.w3.org/2000/svg">
  <defs>
    <radialGradient id="bg" cx="50%" cy="0%" r="80%">
      <stop offset="0%" stop-color="#00f0ff" stop-opacity="0.25"/>
      <stop offset="40%" stop-color="#00f0ff" stop-opacity="0.08"/>
      <stop offset="100%" stop-color="#05050a" stop-opacity="1"/>
    </radialGradient>
    <linearGradient id="ring" x1="0%" y1="0%" x2="100%" y2="100%">
      <stop offset="0%" stop-color="#00f0ff"/>
      <stop offset="50%" stop-color="#39ff14"/>
      <stop offset="100%" stop-color="#ff2eaa"/>
    </linearGradient>
  </defs>

  <rect x="0" y="0" width="128" height="128" rx="32" fill="#05050a"/>
  <rect x="4" y="4" width="120" height="120" rx="28" fill="url(#bg)"/>

  <circle cx="64" cy="64" r="34" fill="none" stroke="url(#ring)" stroke-width="4" />
  <circle cx="64" cy="64" r="22" fill="none" stroke="#141428" stroke-width="3" />

  <path d="M40 72 C48 58 54 54 64 54 C74 54 80 58 88 72" fill="none" stroke="#00f0ff" stroke-width="3" stroke-linecap="round"/>
  <path d="M48 76 C54 66 58 64 64 64 C70 64 74 66 80 76" fill="none" stroke="#39ff14" stroke-width="3" stroke-linecap="round"/>

  <circle cx="64" cy="46" r="4" fill="#ff2eaa"/>
  <circle cx="48" cy="84" r="3" fill="#00f0ff"/>
  <circle cx="80" cy="84" r="3" fill="#39ff14"/>
</svg>

